<svg width="18" height="17" viewBox="0 0 18 17" fill="none" xmlns="http://www.w3.org/2000/svg">
<g clip-path="url(#clip0_1_58)">
<path d="M12.1932 0.501953H1.36719V15.1559H1.90615V1.31039C1.90614 1.2395 1.93407 1.17146 1.98389 1.12101C2.0337 1.07057 2.10139 1.04179 2.17228 1.04091H12.1932V0.501953Z" fill="#A2A2A2"/>
<path d="M9.51202 11.8837C9.51598 10.8794 9.91053 9.91611 10.6122 9.19761C11.3138 8.4791 12.2675 8.06179 13.2713 8.03397V1.58154H2.44531V16.2355H13.2713V15.7501C12.2646 15.7222 11.3084 15.3026 10.6063 14.5805C9.90425 13.8584 9.51163 12.8908 9.51202 11.8837ZM2.99431 8.25658L4.36179 5.24378C4.38131 5.20055 4.41188 5.16323 4.45044 5.1356C4.48899 5.10797 4.53415 5.09101 4.58136 5.08642C4.62857 5.08184 4.67615 5.0898 4.7193 5.10949C4.76245 5.12918 4.79964 5.15992 4.8271 5.19858L6.76032 7.94861L11.0619 3.57167H10.0175C9.94948 3.56631 9.88598 3.53551 9.83967 3.48541C9.79336 3.4353 9.76763 3.36958 9.76763 3.30135C9.76763 3.23312 9.79336 3.1674 9.83967 3.1173C9.88598 3.0672 9.94948 3.03639 10.0175 3.03104H11.713C11.7369 3.03139 11.7606 3.03534 11.7833 3.04275H11.8001C11.8213 3.0495 11.8416 3.05907 11.8603 3.07121C11.8799 3.08351 11.8974 3.09876 11.9122 3.1164L11.9223 3.12979C11.9523 3.16678 11.9714 3.21141 11.9775 3.25867C11.9775 3.25867 11.9775 3.27039 11.9775 3.27708C11.9775 3.28378 11.9775 3.2888 11.9775 3.2955V4.9358C11.9775 5.00727 11.9491 5.07581 11.8986 5.12635C11.848 5.17689 11.7795 5.20528 11.708 5.20528C11.6365 5.20528 11.568 5.17689 11.5175 5.12635C11.4669 5.07581 11.4385 5.00727 11.4385 4.9358V3.96166L6.91933 8.55786C6.89167 8.5862 6.8581 8.60809 6.82101 8.62198C6.78392 8.63587 6.74423 8.64141 6.70476 8.63822C6.66528 8.63502 6.627 8.62316 6.59263 8.60349C6.55826 8.58381 6.52865 8.55681 6.50591 8.52439L4.66475 5.8932L3.4931 8.48087C3.47155 8.52797 3.43688 8.56786 3.39324 8.59576C3.3496 8.62366 3.29885 8.6384 3.24705 8.63821C3.20895 8.63866 3.17122 8.63065 3.13658 8.61477C3.10346 8.60093 3.07343 8.5806 3.04827 8.55498C3.02311 8.52937 3.00332 8.49899 2.99007 8.46562C2.97682 8.43225 2.97036 8.39657 2.97109 8.36067C2.97182 8.32478 2.97972 8.28939 2.99431 8.25658ZM3.16169 9.59561H3.95172V10.1346H3.17676L3.16169 9.59561ZM8.84585 13.914H3.23868V13.3733H8.84585V13.914ZM8.84585 11.9356H3.23868V11.3966H8.84585V11.9356ZM8.84585 10.1379H4.60616V9.59896H8.84585V10.1379Z" fill="#A2A2A2"/>
<path d="M13.3766 8.56445C12.7185 8.56445 12.0752 8.75968 11.5282 9.12542C10.9811 9.49116 10.5548 10.011 10.3033 10.6191C10.0518 11.2272 9.98631 11.8962 10.1152 12.5416C10.244 13.1869 10.5615 13.7795 11.0273 14.2443C11.4931 14.7092 12.0863 15.0254 12.7319 15.153C13.3774 15.2805 14.0464 15.2137 14.654 14.961C15.2615 14.7082 15.7805 14.2809 16.1451 13.7331C16.5098 13.1853 16.7037 12.5416 16.7024 11.8836C16.6997 11.0029 16.3483 10.1592 15.7249 9.53717C15.1016 8.9151 14.2572 8.56533 13.3766 8.56445ZM13.482 11.6442C14.2386 11.7162 14.8294 12.2953 14.8294 12.9966C14.8186 13.299 14.7092 13.5896 14.518 13.8241C14.3267 14.0586 14.064 14.2241 13.7699 14.2955V14.729H13.231V14.3574C12.4476 14.3139 11.8233 13.723 11.8233 13.0033H12.3623C12.3623 13.4552 12.7941 13.8235 13.3264 13.8235C13.8586 13.8235 14.2888 13.4552 14.2888 13.0033C14.2888 12.5514 13.857 12.1832 13.3264 12.1832C12.6016 12.1045 12.0342 11.5488 12.0342 10.8793C12.0342 10.2349 12.5531 9.6976 13.231 9.59048V9.05487H13.7699V9.5955C14.0828 9.64023 14.3701 9.79312 14.582 10.0276C14.7939 10.2622 14.917 10.5635 14.9298 10.8793H14.3909C14.3909 10.4542 13.9842 10.1077 13.482 10.1077C12.9799 10.1077 12.5732 10.4475 12.5732 10.8793C12.5732 11.3111 12.9816 11.6442 13.482 11.6442Z" fill="#A2A2A2"/>
</g>
<defs>
<clipPath id="clip0_1_58">
<rect width="16.7378" height="16.7378" fill="white" transform="translate(0.666016 -0.000244141)"/>
</clipPath>
</defs>
</svg>
