<svg width="25" height="24" viewBox="0 0 25 24" fill="none" xmlns="http://www.w3.org/2000/svg">
<path d="M20.273 6.17495L18.6021 3.26908C17.6577 1.67085 15.9868 0.72644 14.1707 0.72644H10.8289C9.01273 0.72644 7.34186 1.67085 6.39745 3.26908L4.72657 6.17495C3.85481 7.77318 3.85481 9.66199 4.72657 11.2602L6.39745 14.1661C7.26921 15.7643 9.01273 16.7087 10.8289 16.7087H14.1707C15.9868 16.7087 17.6577 15.7643 18.6021 14.1661L20.273 11.2602C21.1447 9.66199 21.1447 7.77318 20.273 6.17495ZM13.2262 11.5508C13.2262 11.9867 12.9357 12.3499 12.4998 12.3499C12.0639 12.3499 11.7733 12.0593 11.7733 11.6235C11.3374 11.6235 11.0468 11.3329 11.0468 10.897C11.0468 10.4611 11.3374 10.1705 11.7733 10.1705H12.863C13.081 10.1705 13.2262 10.0252 13.2262 9.80729C13.2262 9.58935 13.081 9.44405 12.863 9.44405H12.1365C11.1195 9.44405 10.3204 8.64494 10.3204 7.62788C10.3204 6.75612 10.9742 6.02965 11.7733 5.88436V5.81171C11.7733 5.37583 12.0639 5.08525 12.4998 5.08525C12.9357 5.08525 13.2262 5.37583 13.2262 5.81171C13.6621 5.81171 13.9527 6.1023 13.9527 6.53818C13.9527 6.97406 13.6621 7.26465 13.2262 7.26465H12.1365C11.9186 7.26465 11.7733 7.40994 11.7733 7.62788C11.7733 7.84582 11.9186 7.99112 12.1365 7.99112H12.863C13.8801 7.99112 14.6792 8.79023 14.6792 9.80729C14.6792 10.679 14.0254 11.4055 13.2262 11.5508Z" fill="#A2A2A2"/>
<path d="M14.1707 18.1617H10.8289C9.59395 18.1617 8.43161 17.7985 7.41455 17.2173V21.794C7.41455 22.012 7.55984 22.3026 7.77778 22.4479C7.99572 22.5931 8.28631 22.5931 8.50425 22.4479L12.5725 20.4137L16.6407 22.4479C16.6407 22.5205 16.7133 22.5205 16.8586 22.5205C17.0039 22.5205 17.1492 22.5205 17.2219 22.4479C17.4398 22.3026 17.5851 22.0846 17.5851 21.794V17.2173C16.568 17.7985 15.4057 18.1617 14.1707 18.1617Z" fill="#A2A2A2"/>
</svg>
