<svg width="16" height="18" viewBox="0 0 16 18" fill="none" xmlns="http://www.w3.org/2000/svg">
<path d="M10.9114 4.86997C10.8531 4.87012 10.7948 4.86585 10.7371 4.85719C9.8318 4.72311 8.96576 4.39651 8.19736 3.89941C7.16112 4.57848 5.94925 4.94043 4.71032 4.94088C4.12472 4.93837 3.54229 4.85485 2.97958 4.69272C2.97435 4.77524 2.9668 4.85719 2.9668 4.94088C2.9668 6.01984 3.39541 7.0546 4.15835 7.81754C4.92129 8.58048 5.95606 9.0091 7.03502 9.0091C8.11398 9.0091 9.14874 8.58048 9.91168 7.81754C10.6746 7.0546 11.1032 6.01984 11.1032 4.94088C11.1032 4.91008 11.0992 4.88276 11.0986 4.84963C11.0368 4.86138 10.9743 4.86818 10.9114 4.86997Z" fill="#A2A2A2"/>
<path d="M4.7102 3.77851C5.99789 3.77967 7.24029 3.30342 8.19725 2.44181C8.95834 3.12113 9.902 3.56225 10.9113 3.71051C10.6548 2.90087 10.1511 2.19192 9.47096 1.68324C8.79083 1.17455 7.96845 0.891692 7.11931 0.87438C6.27018 0.857068 5.43694 1.10617 4.73665 1.58671C4.03635 2.06725 3.50417 2.75508 3.21484 3.5536C3.69963 3.70121 4.20344 3.77699 4.7102 3.77851Z" fill="#A2A2A2"/>
<path d="M12.8467 14.2396C12.0245 14.2535 11.2162 14.0259 10.522 13.5852V15.6925C10.522 16.4951 11.5629 17.1455 12.8467 17.1455C14.1305 17.1455 15.1714 16.4951 15.1714 15.6925V13.5852C14.4771 14.0259 13.6689 14.2535 12.8467 14.2396Z" fill="#A2A2A2"/>
<path d="M12.8467 13.0773C14.1306 13.0773 15.1714 12.4268 15.1714 11.6243C15.1714 10.8219 14.1306 10.1714 12.8467 10.1714C11.5628 10.1714 10.522 10.8219 10.522 11.6243C10.522 12.4268 11.5628 13.0773 12.8467 13.0773Z" fill="#A2A2A2"/>
<path d="M9.3597 15.6927V11.6244C9.36512 11.309 9.43679 10.9982 9.57005 10.7123C9.70331 10.4264 9.89519 10.1716 10.1332 9.96461C9.51762 9.71787 8.86058 9.59084 8.19735 9.59033L7.61618 10.7527L8.59081 14.163C8.64778 14.3624 8.6504 14.5733 8.59838 14.774C8.54637 14.9747 8.44162 15.1579 8.29499 15.3044L7.4459 16.1535C7.33691 16.2625 7.18911 16.3237 7.03501 16.3237C6.8809 16.3237 6.7331 16.2625 6.62412 16.1535L5.77502 15.3044C5.62839 15.1579 5.52364 14.9747 5.47163 14.774C5.41962 14.5733 5.42223 14.3624 5.4792 14.163L6.45383 10.7527L5.87266 9.59033C4.48542 9.59033 3.15501 10.1414 2.17409 11.1223C1.19317 12.1033 0.64209 13.4337 0.64209 14.8209V15.4021C0.64209 15.8645 0.825782 16.308 1.15276 16.6349C1.47973 16.9619 1.9232 17.1456 2.38561 17.1456H9.93216C9.56922 16.7481 9.36543 16.2309 9.3597 15.6927Z" fill="#A2A2A2"/>
</svg>
