<svg width="19" height="17" viewBox="0 0 19 17" fill="none" xmlns="http://www.w3.org/2000/svg">
<g clip-path="url(#clip0_1_63)">
<path d="M1.94228 5.88574C2.3769 4.32401 3.32849 2.94761 4.62388 1.9314C5.99242 0.857668 7.74612 0.182703 9.68037 0.112428C11.9765 0.029406 14.0931 0.815503 15.6584 2.15432C17.2234 3.49248 18.2368 5.38271 18.3269 7.50664C18.3609 8.30385 18.2633 9.07524 18.0534 9.8025C17.8831 10.39 17.6375 10.9567 17.322 11.4904C17.1794 11.2852 16.9944 11.1081 16.7776 10.9692C16.5608 10.8304 16.3165 10.7324 16.0588 10.6811C16.2761 10.2895 16.451 9.87278 16.5771 9.43773C16.7499 8.83892 16.8301 8.20841 16.8029 7.56155C16.7294 5.82495 15.9019 4.28021 14.6245 3.18817C13.3471 2.09581 11.6175 1.45419 9.74009 1.52217C8.16166 1.5797 6.72916 2.13111 5.61044 3.00938C4.58784 3.81182 3.82742 4.88719 3.45746 6.10637L4.12883 6.20476C4.3465 6.23581 4.49597 6.42474 4.46204 6.62575C4.44756 6.71401 4.39985 6.78984 4.33307 6.84475L2.54369 8.31889C2.37867 8.45453 2.12567 8.44113 1.97903 8.28849C1.95429 8.26299 1.9345 8.23554 1.91896 8.20645L0.720733 6.31785C0.609427 6.142 0.673384 5.91582 0.863135 5.81253C0.94688 5.7671 1.04123 5.75337 1.13027 5.76709L1.94228 5.88574ZM4.54367 15.2901V10.8135C6.93163 10.8135 7.33693 10.7138 9.48921 11.9666H11.1804C11.9457 12.0088 12.3468 12.7269 11.6026 13.1986C11.01 13.6009 10.2274 13.5781 9.42525 13.5114C8.8719 13.4859 8.84858 14.1736 9.42525 14.1759C9.62596 14.1903 9.84327 14.1468 10.033 14.1468C11.0334 14.1455 11.8581 13.9683 12.3627 13.2371L12.6157 12.6906L15.1312 11.5375C16.3895 11.1544 17.2849 12.3716 16.357 13.2192C14.5347 14.4452 12.6666 15.4539 10.7556 16.2688C9.36766 17.0496 7.97933 17.0228 6.59241 16.2688L4.54367 15.2901ZM0.815785 10.383H3.8882V15.7399H0.815785V10.383ZM9.75352 11.1413C9.22773 10.701 9.16872 9.9509 9.62843 9.44426C10.0991 8.92521 10.9351 8.85788 11.4963 9.29325C12.057 9.72863 12.1302 10.5023 11.6595 11.021C11.6065 11.0792 11.548 11.1328 11.4846 11.1812C10.9256 11.0782 10.3047 11.1403 9.75352 11.1413ZM6.21221 9.99862L7.63693 3.79973L13.3256 4.98296L13.1648 5.68211L9.10052 4.83685L9.04752 4.82443C8.65317 4.74631 8.26449 4.97936 8.18039 5.34479L8.10265 5.68244L8.09063 5.68015L7.73304 7.28961L7.09418 10.0705C6.81962 10.0293 6.53411 10.0087 6.21221 9.99862ZM7.65142 10.1875L8.77402 5.30328L14.4623 6.48651L13.3224 11.4479L12.5832 11.7869C12.5196 11.7084 12.4468 11.6352 12.3659 11.5682L13.1581 7.99791C12.6941 7.90181 12.4016 7.47363 12.5058 7.04642L10.256 6.58032C10.1521 7.00949 9.68956 7.2798 9.22773 7.1837L8.49275 10.4938C8.19063 10.3591 7.9182 10.2604 7.65142 10.1875Z" fill="#A2A2A2"/>
</g>
<defs>
<clipPath id="clip0_1_63">
<rect width="17.6677" height="16.7378" fill="white" transform="translate(0.666016 0.106445)"/>
</clipPath>
</defs>
</svg>
