<svg width="20" height="20" viewBox="0 0 20 20" fill="none" xmlns="http://www.w3.org/2000/svg">
<path d="M12.8125 9.375C14.3658 9.375 15.625 8.1158 15.625 6.5625C15.625 5.0092 14.3658 3.75 12.8125 3.75C11.2592 3.75 10 5.0092 10 6.5625C10 8.1158 11.2592 9.375 12.8125 9.375Z" fill="#A3A3A3"/>
<path d="M18.6875 10.3125C18.5625 10.125 18.375 10 18.125 10C16.75 10 15.4375 10.625 14.625 11.75L14.0625 12.5C13.375 13.3125 12.3125 13.75 11.25 13.75H9.375C9 13.75 8.75 13.5 8.75 13.125C8.75 12.75 9 12.5 9.375 12.5H10.5625C11.5625 12.5 12.5 11.6875 12.5 10.6875V10.625C12.5 10.3125 12.1875 10 11.875 10H8.0625C5.8125 10 4 11 3 12.625L1.3125 15.25C1.1875 15.4375 1.1875 15.6875 1.3125 15.875L3.1875 19C3.25 19.125 3.4375 19.25 3.5625 19.3125C3.625 19.3125 3.625 19.3125 3.6875 19.3125C3.8125 19.3125 3.9375 19.25 4.0625 19.1875C6.4375 17.625 9.1875 16.8125 12 16.8125C14.0625 16.8125 15.9375 15.6875 16.9375 13.875L18.625 10.875C18.75 10.75 18.75 10.5 18.6875 10.3125Z" fill="#A3A3A3"/>
<path d="M8.75 6.5625C8.75 5 9.6875 3.625 11 2.9375C10.5625 1.9375 9.5625 1.25 8.4375 1.25C6.875 1.25 5.625 2.5 5.625 4.0625C5.625 5.625 6.875 6.875 8.4375 6.875C8.5625 6.875 8.625 6.875 8.75 6.8125C8.75 6.75 8.75 6.6875 8.75 6.5625Z" fill="#A3A3A3"/>
</svg>
