<svg width="18" height="18" viewBox="0 0 18 18" fill="none" xmlns="http://www.w3.org/2000/svg">
<path d="M12.5856 4.54888C12.5166 4.54903 12.4476 4.54444 12.3794 4.53513C11.3085 4.39093 10.284 4.03971 9.375 3.50513C8.14917 4.2354 6.71559 4.62464 5.25 4.62513C4.55727 4.62243 3.86828 4.53262 3.20263 4.35825C3.19644 4.447 3.1875 4.53513 3.1875 4.62513C3.1875 5.78545 3.69453 6.89825 4.59705 7.71872C5.49957 8.53919 6.72365 9.00013 8 9.00013C9.27635 9.00013 10.5004 8.53919 11.403 7.71872C12.3055 6.89825 12.8125 5.78545 12.8125 4.62513C12.8125 4.592 12.8077 4.56263 12.807 4.527C12.734 4.53963 12.6599 4.54695 12.5856 4.54888Z" fill="#A3A3A3"/>
<path d="M5.24989 3.37501C6.77316 3.37626 8.24286 2.8641 9.37489 1.93751C10.2752 2.66807 11.3915 3.14245 12.5855 3.30189C12.2821 2.43119 11.6862 1.66878 10.8816 1.12174C10.0771 0.574695 9.10424 0.270503 8.09975 0.251885C7.09526 0.233267 6.10959 0.501159 5.28117 1.01793C4.45276 1.53471 3.82321 2.27441 3.48096 3.13314C4.05444 3.29189 4.65042 3.37338 5.24989 3.37501Z" fill="#A3A3A3"/>
<path d="M14.875 14.6249C13.9024 14.6398 12.9463 14.3951 12.125 13.9211V16.1874C12.125 17.0505 13.3563 17.7499 14.875 17.7499C16.3937 17.7499 17.625 17.0505 17.625 16.1874V13.9211C16.8037 14.3951 15.8476 14.6398 14.875 14.6249Z" fill="#A3A3A3"/>
<path d="M14.875 13.375C16.3938 13.375 17.625 12.6754 17.625 11.8125C17.625 10.9496 16.3938 10.25 14.875 10.25C13.3562 10.25 12.125 10.9496 12.125 11.8125C12.125 12.6754 13.3562 13.375 14.875 13.375Z" fill="#A3A3A3"/>
<path d="M10.75 16.1875V11.8125C10.7564 11.4733 10.8412 11.1391 10.9988 10.8316C11.1565 10.5241 11.3835 10.2501 11.6651 10.0275C10.9368 9.76215 10.1596 9.62554 9.375 9.625L8.6875 10.875L9.84044 14.5425C9.90783 14.7569 9.91093 14.9837 9.84939 15.1996C9.78786 15.4154 9.66395 15.6124 9.4905 15.77L8.48606 16.6831C8.35714 16.8003 8.1823 16.8661 8 16.8661C7.8177 16.8661 7.64286 16.8003 7.51394 16.6831L6.5095 15.77C6.33605 15.6124 6.21213 15.4154 6.1506 15.1996C6.08907 14.9837 6.09217 14.7569 6.15956 14.5425L7.3125 10.875L6.625 9.625C4.98397 9.625 3.41016 10.2176 2.24978 11.2725C1.0894 12.3274 0.4375 13.7582 0.4375 15.25V15.875C0.4375 16.3723 0.654799 16.8492 1.04159 17.2008C1.42839 17.5525 1.95299 17.75 2.5 17.75H11.4272C10.9979 17.3226 10.7568 16.7663 10.75 16.1875Z" fill="#A3A3A3"/>
</svg>
