<svg width="22" height="21" viewBox="0 0 22 21" fill="none" xmlns="http://www.w3.org/2000/svg">
<path fill-rule="evenodd" clip-rule="evenodd" d="M10.8321 0.0999756C5.08873 0.0999756 0.432129 4.75658 0.432129 10.5C0.432129 16.2434 5.08873 20.9 10.8321 20.9C16.5755 20.9 21.2321 16.2434 21.2321 10.5C21.2321 4.75658 16.5755 0.0999756 10.8321 0.0999756ZM15.6525 7.17284C15.4965 8.81691 14.8188 12.8079 14.4747 14.6496C14.3291 15.4296 14.0414 15.6904 13.7641 15.7156C13.16 15.771 12.7015 15.316 12.1165 14.933C11.2013 14.3332 10.6839 13.9597 9.7956 13.3738C8.76859 12.697 9.4342 12.3252 10.0192 11.7176C10.1726 11.5582 12.8333 9.13758 12.8853 8.91831C12.8913 8.89058 12.8983 8.78831 12.8367 8.73458C12.7752 8.68084 12.6859 8.69904 12.6218 8.71378C12.5299 8.73458 11.0679 9.70091 8.23473 11.6128C7.8196 11.8979 7.44346 12.0366 7.10633 12.0296C6.7354 12.0218 6.02126 11.8199 5.49 11.6466C4.83913 11.4351 4.32086 11.3224 4.36593 10.9636C4.38933 10.7764 4.64673 10.5849 5.139 10.389C8.1706 9.06824 10.1925 8.19724 11.2039 7.77604C14.0925 6.57484 14.6923 6.36598 15.084 6.35904C15.5745 6.35211 15.6924 6.75684 15.6525 7.17284Z" fill="#D5D5D5"/>
</svg>
