<svg width="21" height="17" viewBox="0 0 21 17" fill="none" xmlns="http://www.w3.org/2000/svg">
<path d="M18.8708 4.25678C18.8829 4.43964 18.8829 4.62338 18.8829 4.80798C18.8829 10.4474 14.5895 16.95 6.74093 16.95V16.9465C4.4226 16.95 2.15193 16.2861 0.200195 15.0338C0.537329 15.0745 0.876195 15.0944 1.21593 15.0953C3.1382 15.097 5.005 14.4522 6.51559 13.2649C4.68953 13.2302 3.08793 12.0394 2.52893 10.3009C3.16853 10.424 3.82719 10.3988 4.45553 10.2281C2.46393 9.82598 1.0322 8.07618 1.0322 6.04471C1.0322 6.02651 1.0322 6.00831 1.0322 5.99098C1.62586 6.32204 2.28973 6.50491 2.9692 6.52484C1.09373 5.27251 0.514795 2.77824 1.64753 0.828245C3.8142 3.49411 7.01133 5.11478 10.4425 5.28724C10.0984 3.80524 10.569 2.25218 11.6766 1.20958C13.3952 -0.406755 16.0983 -0.323555 17.7147 1.39504C18.6706 1.20698 19.5867 0.855978 20.4247 0.359378C20.1058 1.34738 19.4393 2.18631 18.5484 2.72018C19.3951 2.61878 20.2211 2.39258 21.0002 2.04764C20.4273 2.90478 19.7063 3.65271 18.8708 4.25678Z" fill="#D5D5D5"/>
</svg>
