<svg width="19" height="18" viewBox="0 0 19 18" fill="none" xmlns="http://www.w3.org/2000/svg">
<g clip-path="url(#clip0_203_3257)">
<path d="M18.4169 9.05469C18.4169 13.5464 15.1113 17.2702 10.7961 17.9459V11.6737H12.8943L13.2937 9.07869H10.7961V7.39494C10.7961 6.68469 11.1451 5.99319 12.2631 5.99319H13.3983V3.78369C13.3983 3.78369 12.3676 3.60819 11.3829 3.60819C9.32606 3.60819 7.98244 4.85094 7.98244 7.10019V9.07794H5.69618V11.6729H7.98244V17.9452C3.66796 17.2687 0.361572 13.5457 0.361572 9.05469C0.361572 4.08444 4.40372 0.0546875 9.38926 0.0546875C14.3748 0.0546875 18.4169 4.08369 18.4169 9.05469Z" fill="#0086D5"/>
</g>
<defs>
<clipPath id="clip0_203_3257">
<rect width="18.0554" height="18" fill="white" transform="translate(0.361572)"/>
</clipPath>
</defs>
</svg>
