<svg width="19" height="18" viewBox="0 0 19 18" fill="none" xmlns="http://www.w3.org/2000/svg">
<g clip-path="url(#clip0_203_3260)">
<path fill-rule="evenodd" clip-rule="evenodd" d="M9.22227 0C4.23673 0 0.19458 4.02975 0.19458 9C0.19458 13.9703 4.23673 18 9.22227 18C14.2078 18 18.25 13.9703 18.25 9C18.25 4.02975 14.2078 0 9.22227 0ZM13.4066 6.12075C13.2712 7.5435 12.6829 10.9972 12.3842 12.591C12.2578 13.266 12.0081 13.4917 11.7673 13.5135C11.243 13.5615 10.845 13.1677 10.3372 12.8363C9.54276 12.3173 9.09363 11.994 8.32251 11.487C7.43103 10.9012 8.0088 10.5795 8.51661 10.0538C8.64977 9.91575 10.9594 7.821 11.0045 7.63125C11.0098 7.60725 11.0158 7.51875 10.9624 7.47225C10.9089 7.42575 10.8315 7.4415 10.7758 7.45425C10.696 7.47225 9.4269 8.3085 6.96761 9.963C6.60725 10.2098 6.28075 10.3298 5.9881 10.3238C5.66611 10.317 5.04621 10.1423 4.58505 9.99225C4.02006 9.80925 3.57018 9.71175 3.6093 9.40125C3.62962 9.23925 3.85305 9.0735 4.28036 8.904C6.91194 7.761 8.66707 7.00725 9.54501 6.64275C12.0525 5.60325 12.5731 5.4225 12.9131 5.4165C13.3389 5.4105 13.4412 5.76075 13.4066 6.12075Z" fill="#0086D5"/>
</g>
<defs>
<clipPath id="clip0_203_3260">
<rect width="18.0554" height="18" fill="white" transform="translate(0.19458)"/>
</clipPath>
</defs>
</svg>
