<svg width="19" height="18" viewBox="0 0 19 18" fill="none" xmlns="http://www.w3.org/2000/svg">
<g clip-path="url(#clip0_203_3263)">
<path d="M16.7902 5.32801C16.8007 5.48626 16.8007 5.64526 16.8007 5.80501C16.8007 10.6853 13.0738 16.3125 6.26091 16.3125V16.3095C4.24849 16.3125 2.27745 15.738 0.583252 14.6543C0.875899 14.6895 1.17005 14.7068 1.46496 14.7075C3.13357 14.709 4.75404 14.151 6.06531 13.1235C4.4802 13.0935 3.08994 12.063 2.6047 10.5585C3.1599 10.665 3.73166 10.6433 4.27708 10.4955C2.54828 10.1475 1.30547 8.63326 1.30547 6.87526C1.30547 6.85951 1.30547 6.84376 1.30547 6.82876C1.8208 7.11526 2.39706 7.27351 2.98687 7.29076C1.35888 6.20701 0.856339 4.04851 1.8396 2.36101C3.72037 4.66801 6.49563 6.07051 9.47402 6.21976C9.17535 4.93726 9.58385 3.59326 10.5453 2.69101C12.0371 1.29226 14.3836 1.36426 15.7866 2.85151C16.6164 2.68876 17.4116 2.38501 18.1391 1.95526C17.8622 2.81026 17.2837 3.53626 16.5103 3.99826C17.2453 3.91051 17.9623 3.71476 18.6386 3.41626C18.1413 4.15801 17.5154 4.80526 16.7902 5.32801Z" fill="#0086D5"/>
</g>
<defs>
<clipPath id="clip0_203_3263">
<rect width="18.0554" height="18" fill="white" transform="translate(0.583252)"/>
</clipPath>
</defs>
</svg>
